<svg width="1920" height="14" viewBox="0 0 1920 14" fill="none" xmlns="http://www.w3.org/2000/svg">
<path d="M-239.59 1.05056C-236.849 -0.109966 -232.886 -0.109966 -230.145 1.05056L-215.439 7.27718C-210.085 9.54441 -213.215 14 -220.162 14H-249.573C-256.52 14 -259.65 9.54441 -254.296 7.27719L-239.59 1.05056Z" fill="#FFFA89"/>
<path d="M-199.686 0.979956C-196.968 -0.145287 -193.085 -0.145288 -190.367 0.979955L-175.221 7.25073C-169.786 9.50073 -172.892 14 -179.88 14H-210.173C-217.161 14 -220.267 9.50073 -214.832 7.25073L-199.686 0.979956Z" fill="#FFFA89"/>
<path d="M-158.918 0.979956C-156.201 -0.145287 -152.317 -0.145288 -149.6 0.979955L-134.453 7.25073C-129.018 9.50073 -132.125 14 -139.113 14H-169.405C-176.393 14 -179.5 9.50073 -174.065 7.25073L-158.918 0.979956Z" fill="#FFFA89"/>
<path d="M-117.392 1.05056C-114.651 -0.109966 -110.687 -0.109966 -107.947 1.05056L-93.241 7.27718C-87.8864 9.54441 -91.0164 14 -97.9637 14H-127.375C-134.322 14 -137.452 9.54441 -132.097 7.27719L-117.392 1.05056Z" fill="#FFFA89"/>
<path d="M-77.4878 0.979956C-74.7699 -0.145287 -70.8867 -0.145288 -68.1688 0.979955L-53.0224 7.25073C-47.5878 9.50073 -50.6939 14 -57.6819 14H-87.9747C-94.9627 14 -98.0688 9.50073 -92.6342 7.25073L-77.4878 0.979956Z" fill="#FFFA89"/>
<path d="M-36.7203 0.979956C-34.0024 -0.145287 -30.1192 -0.145288 -27.4013 0.979955L-12.2549 7.25073C-6.8203 9.50073 -9.92644 14 -16.9144 14H-47.2072C-54.1952 14 -57.3013 9.50073 -51.8667 7.25073L-36.7203 0.979956Z" fill="#FFFA89"/>
<path d="M4.91049 0.914533C7.65134 -0.245989 11.6151 -0.24599 14.3559 0.914533L29.0615 7.14116C34.416 9.40838 31.286 13.864 24.3387 13.864H-5.07237C-12.0196 13.864 -15.1496 9.40839 -9.79504 7.14116L4.91049 0.914533Z" fill="#FFFA89"/>
<path d="M44.8146 0.843933C47.5325 -0.28131 51.4157 -0.281311 54.1336 0.843932L69.28 7.1147C74.7147 9.3647 71.6085 13.864 64.6205 13.864H34.3277C27.3398 13.864 24.2336 9.3647 29.6682 7.1147L44.8146 0.843933Z" fill="#FFFA89"/>
<path d="M85.5821 0.843933C88.3 -0.28131 92.1832 -0.281311 94.9011 0.843932L110.047 7.1147C115.482 9.3647 112.376 13.864 105.388 13.864H75.0952C68.1072 13.864 65.0011 9.3647 70.4357 7.1147L85.5821 0.843933Z" fill="#FFFA89"/>
<path d="M127.109 0.914533C129.85 -0.245989 133.813 -0.24599 136.554 0.914533L151.26 7.14116C156.614 9.40838 153.484 13.864 146.537 13.864H117.126C110.179 13.864 107.049 9.40839 112.403 7.14116L127.109 0.914533Z" fill="#FFFA89"/>
<path d="M167.013 0.843933C169.731 -0.28131 173.614 -0.281311 176.332 0.843932L191.478 7.1147C196.913 9.3647 193.807 13.864 186.819 13.864H156.526C149.538 13.864 146.432 9.3647 151.866 7.1147L167.013 0.843933Z" fill="#FFFA89"/>
<path d="M207.78 0.843933C210.498 -0.28131 214.381 -0.281311 217.099 0.843932L232.246 7.1147C237.68 9.3647 234.574 13.864 227.586 13.864H197.293C190.305 13.864 187.199 9.3647 192.634 7.1147L207.78 0.843933Z" fill="#FFFA89"/>
<path d="M249.515 1.05056C252.256 -0.109966 256.22 -0.109966 258.961 1.05056L273.666 7.27718C279.021 9.54441 275.891 14 268.944 14H239.532C232.585 14 229.455 9.54441 234.81 7.27719L249.515 1.05056Z" fill="#FFFA89"/>
<path d="M289.419 0.979956C292.137 -0.145287 296.021 -0.145288 298.738 0.979955L313.885 7.25073C319.319 9.50073 316.213 14 309.225 14H278.932C271.945 14 268.838 9.50073 274.273 7.25073L289.419 0.979956Z" fill="#FFFA89"/>
<path d="M330.187 0.979956C332.905 -0.145287 336.788 -0.145288 339.506 0.979955L354.652 7.25073C360.087 9.50073 356.981 14 349.993 14H319.7C312.712 14 309.606 9.50073 315.041 7.25073L330.187 0.979956Z" fill="#FFFA89"/>
<path d="M371.714 1.05056C374.454 -0.109966 378.418 -0.109966 381.159 1.05056L395.864 7.27718C401.219 9.54441 398.089 14 391.142 14H361.731C354.783 14 351.653 9.54441 357.008 7.27719L371.714 1.05056Z" fill="#FFFA89"/>
<path d="M411.618 0.979956C414.336 -0.145287 418.219 -0.145288 420.937 0.979955L436.083 7.25073C441.518 9.50073 438.411 14 431.424 14H401.131C394.143 14 391.037 9.50073 396.471 7.25073L411.618 0.979956Z" fill="#FFFA89"/>
<path d="M452.385 0.979956C455.103 -0.145287 458.986 -0.145288 461.704 0.979955L476.85 7.25073C482.285 9.50073 479.179 14 472.191 14H441.898C434.91 14 431.804 9.50073 437.239 7.25073L452.385 0.979956Z" fill="#FFFA89"/>
<path d="M494.016 0.914533C496.757 -0.245989 500.72 -0.24599 503.461 0.914533L518.167 7.14116C523.521 9.40838 520.391 13.864 513.444 13.864H484.033C477.086 13.864 473.956 9.40839 479.31 7.14116L494.016 0.914533Z" fill="#FFFA89"/>
<path d="M533.92 0.843933C536.638 -0.28131 540.521 -0.281311 543.239 0.843932L558.385 7.1147C563.82 9.3647 560.714 13.864 553.726 13.864H523.433C516.445 13.864 513.339 9.3647 518.774 7.1147L533.92 0.843933Z" fill="#FFFA89"/>
<path d="M574.688 0.843933C577.405 -0.28131 581.289 -0.281311 584.007 0.843932L599.153 7.1147C604.588 9.3647 601.481 13.864 594.493 13.864H564.201C557.213 13.864 554.107 9.3647 559.541 7.1147L574.688 0.843933Z" fill="#FFFA89"/>
<path d="M616.214 0.914533C618.955 -0.245989 622.919 -0.24599 625.66 0.914533L640.365 7.14116C645.72 9.40838 642.59 13.864 635.642 13.864H606.231C599.284 13.864 596.154 9.40839 601.509 7.14116L616.214 0.914533Z" fill="#FFFA89"/>
<path d="M656.118 0.843933C658.836 -0.28131 662.719 -0.281311 665.437 0.843932L680.584 7.1147C686.018 9.3647 682.912 13.864 675.924 13.864H645.631C638.643 13.864 635.537 9.3647 640.972 7.1147L656.118 0.843933Z" fill="#FFFA89"/>
<path d="M696.886 0.843933C699.604 -0.28131 703.487 -0.281311 706.205 0.843932L721.351 7.1147C726.786 9.3647 723.68 13.864 716.692 13.864H686.399C679.411 13.864 676.305 9.3647 681.739 7.1147L696.886 0.843933Z" fill="#FFFA89"/>
<path d="M738.725 1.05056C741.466 -0.109966 745.43 -0.109966 748.17 1.05056L762.876 7.27718C768.23 9.54441 765.1 14 758.153 14H728.742C721.795 14 718.665 9.54441 724.019 7.27719L738.725 1.05056Z" fill="#FFFA89"/>
<path d="M778.629 0.979956C781.347 -0.145287 785.23 -0.145288 787.948 0.979955L803.094 7.25073C808.529 9.50073 805.423 14 798.435 14H768.142C761.154 14 758.048 9.50073 763.483 7.25073L778.629 0.979956Z" fill="#FFFA89"/>
<path d="M819.397 0.979956C822.115 -0.145287 825.998 -0.145288 828.715 0.979955L843.862 7.25073C849.297 9.50073 846.19 14 839.203 14H808.91C801.922 14 798.816 9.50073 804.25 7.25073L819.397 0.979956Z" fill="#FFFA89"/>
<path d="M860.923 1.05056C863.664 -0.109966 867.628 -0.109966 870.369 1.05056L885.074 7.27718C890.429 9.54441 887.299 14 880.351 14H850.94C843.993 14 840.863 9.54441 846.218 7.27719L860.923 1.05056Z" fill="#FFFA89"/>
<path d="M900.827 0.979956C903.545 -0.145287 907.428 -0.145288 910.146 0.979955L925.293 7.25073C930.727 9.50073 927.621 14 920.633 14H890.34C883.352 14 880.246 9.50073 885.681 7.25073L900.827 0.979956Z" fill="#FFFA89"/>
<path d="M941.595 0.979956C944.313 -0.145287 948.196 -0.145288 950.914 0.979955L966.06 7.25073C971.495 9.50073 968.389 14 961.401 14H931.108C924.12 14 921.014 9.50073 926.448 7.25073L941.595 0.979956Z" fill="#FFFA89"/>
<path d="M983.226 0.914533C985.966 -0.245989 989.93 -0.24599 992.671 0.914533L1007.38 7.14116C1012.73 9.40838 1009.6 13.864 1002.65 13.864H973.243C966.296 13.864 963.166 9.40839 968.52 7.14116L983.226 0.914533Z" fill="#FFFA89"/>
<path d="M1023.13 0.843933C1025.85 -0.28131 1029.73 -0.281311 1032.45 0.843932L1047.6 7.1147C1053.03 9.3647 1049.92 13.864 1042.94 13.864H1012.64C1005.65 13.864 1002.55 9.3647 1007.98 7.1147L1023.13 0.843933Z" fill="#FFFA89"/>
<path d="M1063.9 0.843933C1066.62 -0.28131 1070.5 -0.281311 1073.22 0.843932L1088.36 7.1147C1093.8 9.3647 1090.69 13.864 1083.7 13.864H1053.41C1046.42 13.864 1043.32 9.3647 1048.75 7.1147L1063.9 0.843933Z" fill="#FFFA89"/>
<path d="M1105.42 0.914533C1108.16 -0.245989 1112.13 -0.24599 1114.87 0.914533L1129.57 7.14116C1134.93 9.40838 1131.8 13.864 1124.85 13.864H1095.44C1088.49 13.864 1085.36 9.40839 1090.72 7.14116L1105.42 0.914533Z" fill="#FFFA89"/>
<path d="M1145.33 0.843933C1148.05 -0.28131 1151.93 -0.281311 1154.65 0.843932L1169.79 7.1147C1175.23 9.3647 1172.12 13.864 1165.13 13.864H1134.84C1127.85 13.864 1124.75 9.3647 1130.18 7.1147L1145.33 0.843933Z" fill="#FFFA89"/>
<path d="M1186.1 0.843933C1188.81 -0.28131 1192.7 -0.281311 1195.41 0.843932L1210.56 7.1147C1216 9.3647 1212.89 13.864 1205.9 13.864H1175.61C1168.62 13.864 1165.51 9.3647 1170.95 7.1147L1186.1 0.843933Z" fill="#FFFA89"/>
<path d="M1227.83 1.05056C1230.57 -0.109966 1234.53 -0.109966 1237.28 1.05056L1251.98 7.27718C1257.34 9.54441 1254.21 14 1247.26 14H1217.85C1210.9 14 1207.77 9.54441 1213.12 7.27719L1227.83 1.05056Z" fill="#FFFA89"/>
<path d="M1267.73 0.979956C1270.45 -0.145287 1274.34 -0.145288 1277.05 0.979955L1292.2 7.25073C1297.63 9.50073 1294.53 14 1287.54 14H1257.25C1250.26 14 1247.15 9.50073 1252.59 7.25073L1267.73 0.979956Z" fill="#FFFA89"/>
<path d="M1308.5 0.979956C1311.22 -0.145287 1315.1 -0.145288 1317.82 0.979955L1332.97 7.25073C1338.4 9.50073 1335.3 14 1328.31 14H1298.02C1291.03 14 1287.92 9.50073 1293.36 7.25073L1308.5 0.979956Z" fill="#FFFA89"/>
<path d="M1350.03 1.05056C1352.77 -0.109966 1356.73 -0.109966 1359.47 1.05056L1374.18 7.27718C1379.53 9.54441 1376.4 14 1369.46 14H1340.05C1333.1 14 1329.97 9.54441 1335.32 7.27719L1350.03 1.05056Z" fill="#FFFA89"/>
<path d="M1389.93 0.979956C1392.65 -0.145287 1396.53 -0.145288 1399.25 0.979955L1414.4 7.25073C1419.83 9.50073 1416.73 14 1409.74 14H1379.45C1372.46 14 1369.35 9.50073 1374.79 7.25073L1389.93 0.979956Z" fill="#FFFA89"/>
<path d="M1430.7 0.979956C1433.42 -0.145287 1437.3 -0.145288 1440.02 0.979955L1455.17 7.25073C1460.6 9.50073 1457.49 14 1450.51 14H1420.21C1413.23 14 1410.12 9.50073 1415.55 7.25073L1430.7 0.979956Z" fill="#FFFA89"/>
<path d="M1472.33 0.914533C1475.07 -0.245989 1479.04 -0.24599 1481.78 0.914533L1496.48 7.14116C1501.84 9.40838 1498.71 13.864 1491.76 13.864H1462.35C1455.4 13.864 1452.27 9.40839 1457.63 7.14116L1472.33 0.914533Z" fill="#FFFA89"/>
<path d="M1512.24 0.843933C1514.95 -0.28131 1518.84 -0.281311 1521.55 0.843932L1536.7 7.1147C1542.14 9.3647 1539.03 13.864 1532.04 13.864H1501.75C1494.76 13.864 1491.65 9.3647 1497.09 7.1147L1512.24 0.843933Z" fill="#FFFA89"/>
<path d="M1553 0.843933C1555.72 -0.28131 1559.6 -0.281311 1562.32 0.843932L1577.47 7.1147C1582.9 9.3647 1579.8 13.864 1572.81 13.864H1542.52C1535.53 13.864 1532.42 9.3647 1537.86 7.1147L1553 0.843933Z" fill="#FFFA89"/>
<path d="M1594.53 0.914533C1597.27 -0.245989 1601.23 -0.24599 1603.97 0.914533L1618.68 7.14116C1624.03 9.40838 1620.9 13.864 1613.96 13.864H1584.55C1577.6 13.864 1574.47 9.40839 1579.82 7.14116L1594.53 0.914533Z" fill="#FFFA89"/>
<path d="M1634.43 0.843933C1637.15 -0.28131 1641.03 -0.281311 1643.75 0.843932L1658.9 7.1147C1664.33 9.3647 1661.23 13.864 1654.24 13.864H1623.95C1616.96 13.864 1613.85 9.3647 1619.29 7.1147L1634.43 0.843933Z" fill="#FFFA89"/>
<path d="M1675.2 0.843933C1677.92 -0.28131 1681.8 -0.281311 1684.52 0.843932L1699.67 7.1147C1705.1 9.3647 1701.99 13.864 1695.01 13.864H1664.71C1657.73 13.864 1654.62 9.3647 1660.05 7.1147L1675.2 0.843933Z" fill="#FFFA89"/>
<path d="M1715.29 1.05056C1718.03 -0.109966 1722 -0.109966 1724.74 1.05056L1739.44 7.27718C1744.8 9.54441 1741.67 14 1734.72 14H1705.31C1698.36 14 1695.23 9.54441 1700.59 7.27719L1715.29 1.05056Z" fill="#FFFA89"/>
<path d="M1755.2 0.979956C1757.91 -0.145287 1761.8 -0.145288 1764.51 0.979955L1779.66 7.25073C1785.1 9.50073 1781.99 14 1775 14H1744.71C1737.72 14 1734.61 9.50073 1740.05 7.25073L1755.2 0.979956Z" fill="#FFFA89"/>
<path d="M1795.96 0.979956C1798.68 -0.145287 1802.56 -0.145288 1805.28 0.979955L1820.43 7.25073C1825.86 9.50073 1822.76 14 1815.77 14H1785.48C1778.49 14 1775.38 9.50073 1780.82 7.25073L1795.96 0.979956Z" fill="#FFFA89"/>
<path d="M1837.49 1.05056C1840.23 -0.109966 1844.19 -0.109966 1846.93 1.05056L1861.64 7.27718C1866.99 9.54441 1863.86 14 1856.92 14H1827.51C1820.56 14 1817.43 9.54441 1822.78 7.27719L1837.49 1.05056Z" fill="#FFFA89"/>
<path d="M1877.39 0.979956C1880.11 -0.145287 1883.99 -0.145288 1886.71 0.979955L1901.86 7.25073C1907.29 9.50073 1904.19 14 1897.2 14H1866.91C1859.92 14 1856.81 9.50073 1862.25 7.25073L1877.39 0.979956Z" fill="#FFFA89"/>
<path d="M1918.16 0.979956C1920.88 -0.145287 1924.76 -0.145288 1927.48 0.979955L1942.63 7.25073C1948.06 9.50073 1944.95 14 1937.97 14H1907.67C1900.69 14 1897.58 9.50073 1903.01 7.25073L1918.16 0.979956Z" fill="#FFFA89"/>
<path d="M1959.79 0.914533C1962.53 -0.245989 1966.5 -0.24599 1969.24 0.914533L1983.94 7.14116C1989.3 9.40838 1986.17 13.864 1979.22 13.864H1949.81C1942.86 13.864 1939.73 9.40839 1945.09 7.14116L1959.79 0.914533Z" fill="#FFFA89"/>
<path d="M1999.7 0.843933C2002.41 -0.28131 2006.3 -0.281311 2009.01 0.843932L2024.16 7.1147C2029.6 9.3647 2026.49 13.864 2019.5 13.864H1989.21C1982.22 13.864 1979.11 9.3647 1984.55 7.1147L1999.7 0.843933Z" fill="#FFFA89"/>
<path d="M2040.46 0.843933C2043.18 -0.28131 2047.06 -0.281311 2049.78 0.843932L2064.93 7.1147C2070.36 9.3647 2067.26 13.864 2060.27 13.864H2029.98C2022.99 13.864 2019.88 9.3647 2025.32 7.1147L2040.46 0.843933Z" fill="#FFFA89"/>
<path d="M2081.99 0.914533C2084.73 -0.245989 2088.69 -0.24599 2091.44 0.914533L2106.14 7.14116C2111.5 9.40838 2108.37 13.864 2101.42 13.864H2072.01C2065.06 13.864 2061.93 9.40839 2067.28 7.14116L2081.99 0.914533Z" fill="#FFFA89"/>
<path d="M2121.89 0.843933C2124.61 -0.28131 2128.5 -0.281311 2131.21 0.843932L2146.36 7.1147C2151.79 9.3647 2148.69 13.864 2141.7 13.864H2111.41C2104.42 13.864 2101.31 9.3647 2106.75 7.1147L2121.89 0.843933Z" fill="#FFFA89"/>
<path d="M2162.66 0.843933C2165.38 -0.28131 2169.26 -0.281311 2171.98 0.843932L2187.13 7.1147C2192.56 9.3647 2189.46 13.864 2182.47 13.864H2152.17C2145.19 13.864 2142.08 9.3647 2147.52 7.1147L2162.66 0.843933Z" fill="#FFFA89"/>
<path d="M2204.4 1.05056C2207.14 -0.109966 2211.1 -0.109966 2213.84 1.05056L2228.55 7.27718C2233.9 9.54441 2230.77 14 2223.82 14H2194.41C2187.47 14 2184.34 9.54441 2189.69 7.27719L2204.4 1.05056Z" fill="#FFFA89"/>
<path d="M2244.3 0.979956C2247.02 -0.145287 2250.9 -0.145288 2253.62 0.979955L2268.77 7.25073C2274.2 9.50073 2271.09 14 2264.11 14H2233.81C2226.83 14 2223.72 9.50073 2229.15 7.25073L2244.3 0.979956Z" fill="#FFFA89"/>
<path d="M2285.07 0.979956C2287.79 -0.145287 2291.67 -0.145288 2294.39 0.979955L2309.53 7.25073C2314.97 9.50073 2311.86 14 2304.87 14H2274.58C2267.59 14 2264.49 9.50073 2269.92 7.25073L2285.07 0.979956Z" fill="#FFFA89"/>
<path d="M2326.59 1.05056C2329.34 -0.109966 2333.3 -0.109966 2336.04 1.05056L2350.75 7.27718C2356.1 9.54441 2352.97 14 2346.02 14H2316.61C2309.66 14 2306.53 9.54441 2311.89 7.27719L2326.59 1.05056Z" fill="#FFFA89"/>
<path d="M2366.5 0.979956C2369.22 -0.145287 2373.1 -0.145288 2375.82 0.979955L2390.96 7.25073C2396.4 9.50073 2393.29 14 2386.3 14H2356.01C2349.02 14 2345.92 9.50073 2351.35 7.25073L2366.5 0.979956Z" fill="#FFFA89"/>
<path d="M2407.27 0.979956C2409.98 -0.145287 2413.87 -0.145288 2416.59 0.979955L2431.73 7.25073C2437.17 9.50073 2434.06 14 2427.07 14H2396.78C2389.79 14 2386.69 9.50073 2392.12 7.25073L2407.27 0.979956Z" fill="#FFFA89"/>
<path d="M2448.9 0.914533C2451.64 -0.245989 2455.6 -0.24599 2458.34 0.914533L2473.05 7.14116C2478.4 9.40838 2475.27 13.864 2468.33 13.864H2438.91C2431.97 13.864 2428.84 9.40839 2434.19 7.14116L2448.9 0.914533Z" fill="#FFFA89"/>
<path d="M2488.8 0.843933C2491.52 -0.28131 2495.4 -0.281311 2498.12 0.843932L2513.27 7.1147C2518.7 9.3647 2515.6 13.864 2508.61 13.864H2478.31C2471.33 13.864 2468.22 9.3647 2473.66 7.1147L2488.8 0.843933Z" fill="#FFFA89"/>
<path d="M2529.57 0.843933C2532.29 -0.28131 2536.17 -0.281311 2538.89 0.843932L2554.03 7.1147C2559.47 9.3647 2556.36 13.864 2549.37 13.864H2519.08C2512.09 13.864 2508.99 9.3647 2514.42 7.1147L2529.57 0.843933Z" fill="#FFFA89"/>
<path d="M2571.1 0.914533C2573.84 -0.245989 2577.8 -0.24599 2580.54 0.914533L2595.25 7.14116C2600.6 9.40838 2597.47 13.864 2590.52 13.864H2561.11C2554.17 13.864 2551.04 9.40839 2556.39 7.14116L2571.1 0.914533Z" fill="#FFFA89"/>
<path d="M2611 0.843933C2613.72 -0.28131 2617.6 -0.281311 2620.32 0.843932L2635.46 7.1147C2640.9 9.3647 2637.79 13.864 2630.81 13.864H2600.51C2593.52 13.864 2590.42 9.3647 2595.85 7.1147L2611 0.843933Z" fill="#FFFA89"/>
<path d="M2651.77 0.843933C2654.48 -0.28131 2658.37 -0.281311 2661.09 0.843932L2676.23 7.1147C2681.67 9.3647 2678.56 13.864 2671.57 13.864H2641.28C2634.29 13.864 2631.19 9.3647 2636.62 7.1147L2651.77 0.843933Z" fill="#FFFA89"/>
</svg>
